<svg xmlns="http://www.w3.org/2000/svg" version="1.1" xmlns:xlink="http://www.w3.org/1999/xlink" xmlns:svgjs="http://svgjs.dev/svgjs" width="1920" height="1000" preserveAspectRatio="none" viewBox="0 0 1920 1000"><g mask="url(&quot;#SvgjsMask1100&quot;)" fill="none"><path d="M708.3176063469193 448.79581416783986L853.2962605483478 648.7422545396605 944.537979709227 453.0737563599657z" fill="rgba(198, 217, 237, 0.4)" class="triangle-float3"></path><path d="M418.5537527374509 616.4962977310244L140.9942038081456 515.1732173498278 181.39996032646468 770.2851237689558z" fill="rgba(198, 217, 237, 0.4)" class="triangle-float1"></path><path d="M60.789,244.506C97.925,244.333,129.275,220.468,148.472,188.679C168.449,155.599,177.544,115.238,159.484,81.074C140.348,44.876,101.734,22.618,60.789,22.814C20.168,23.008,-17.133,46.187,-36.284,82.01C-54.439,115.971,-48.068,156.444,-28.319,189.503C-9.132,221.62,23.377,244.68,60.789,244.506" fill="rgba(198, 217, 237, 0.4)" class="triangle-float1"></path><path d="M166.013,511.651C202.633,511.625,237.3,493.593,255.623,461.886C273.958,430.159,273.454,390.406,254.036,359.33C235.664,329.928,200.629,320.398,166.013,318.472C126.44,316.27,80.238,314.892,59.213,348.489C37.459,383.251,53.728,427.7,76.187,462.011C96.268,492.689,129.347,511.677,166.013,511.651" fill="rgba(198, 217, 237, 0.4)" class="triangle-float1"></path><path d="M1263.0025284874828 865.3371009747493L1265.6962627445585 711.0131687434238 1111.3723305132328 708.3194344863482 1108.678596256157 862.6433667176738z" fill="rgba(198, 217, 237, 0.4)" class="triangle-float1"></path><path d="M1641.481,276.531C1708.492,276.213,1778.858,263.554,1815.994,207.773C1856.933,146.279,1863.354,64.195,1824.795,1.181C1787.602,-59.601,1712.702,-79.758,1641.481,-77.423C1574.807,-75.237,1512.955,-44.182,1477.867,12.555C1440.778,72.527,1426.923,149.51,1464.071,209.445C1499.769,267.041,1573.72,276.853,1641.481,276.531" fill="rgba(198, 217, 237, 0.4)" class="triangle-float3"></path><path d="M1826.8513484216799 814.9851547593528L1695.5773903416768 1009.606801190943 1890.199036773267 1140.8807592709459 2021.47299485327 946.2591128393558z" fill="rgba(198, 217, 237, 0.4)" class="triangle-float2"></path><path d="M1079.376,1142.138C1162.554,1143.663,1249.68,1127.296,1296.779,1058.721C1350.096,981.092,1362.378,878.527,1317.171,795.912C1270.319,710.289,1176.971,660.166,1079.376,661.415C983.87,662.637,896.206,717.253,851.895,801.867C810.421,881.063,825.674,976.672,875.359,1050.992C919.727,1117.358,999.558,1140.674,1079.376,1142.138" fill="rgba(198, 217, 237, 0.4)" class="triangle-float2"></path><path d="M442.871,333.413C476.653,334.132,510.65,318.809,526.298,288.86C541.077,260.573,529.302,227.614,512.243,200.641C496.587,175.886,472.149,157.799,442.871,156.948C412.062,156.053,382.067,170.004,366.148,196.397C349.719,223.637,349.836,257.678,365.378,285.434C381.287,313.846,410.315,332.72,442.871,333.413" fill="rgba(198, 217, 237, 0.4)" class="triangle-float3"></path><path d="M906.837,919.463C954.432,919.381,1003.319,899.957,1024.747,857.458C1044.711,817.863,1024.547,772.459,999.356,735.966C978.077,705.14,944.281,687.652,906.837,686.649C867.305,685.591,827.838,698.263,805.318,730.77C779.228,768.43,766.516,817.517,788.223,857.863C810.847,899.913,859.087,919.545,906.837,919.463" fill="rgba(198, 217, 237, 0.4)" class="triangle-float3"></path><path d="M748.5475856518772 434.7541104151994L562.1763181415513 411.6902814801769 623.6719492191723 563.8973095029355z" fill="rgba(198, 217, 237, 0.4)" class="triangle-float2"></path><path d="M1493.8221851399799 284.51811974068465L1416.824670462496 151.15451226275204 1360.4585776620472 361.5156344181686z" fill="rgba(198, 217, 237, 0.4)" class="triangle-float3"></path><path d="M1281.480101375095 213.58047285881798L1129.9386994266815 311.99260996791384 1228.3508365357773 463.5340119163274 1379.8922384841908 365.1218748072316z" fill="rgba(198, 217, 237, 0.4)" class="triangle-float1"></path><path d="M1533.609,69.892C1561.643,69.64,1591.116,63.265,1605.943,39.472C1621.503,14.502,1619.818,-18.133,1603.865,-42.853C1589.084,-65.757,1560.865,-72.985,1533.609,-72.613C1507.137,-72.252,1481.152,-63.093,1466.599,-40.978C1450.47,-16.468,1443.806,15.684,1458.983,40.795C1473.785,65.285,1504.994,70.15,1533.609,69.892" fill="rgba(198, 217, 237, 0.4)" class="triangle-float1"></path><path d="M449.403,1181.569C519.014,1181.923,582.3,1143.623,617.973,1083.846C654.6,1022.471,663.495,945.44,626.99,883.992C591.151,823.665,519.573,800.145,449.403,800.094C379.127,800.043,306.953,823.132,271.367,883.732C235.402,944.978,247.333,1021.184,283.775,1082.147C319.186,1141.385,380.389,1181.218,449.403,1181.569" fill="rgba(198, 217, 237, 0.4)" class="triangle-float2"></path><path d="M514.7384839052852 412.6720937869841L768.0699529299634 363.4294445236546 718.827303666634 110.09797549897638 465.4958346419557 159.34062476230588z" fill="rgba(198, 217, 237, 0.4)" class="triangle-float2"></path><path d="M825.3930875651109 1180.7438549914793L931.5954670723329 917.8837416716261 668.7353537524796 811.6813621644042 562.5329742452577 1074.5414754842575z" fill="rgba(198, 217, 237, 0.4)" class="triangle-float2"></path><path d="M1464.0505470994851-66.32078045112512L1590.4509991786133 192.8385520240713 1723.2098795746815-192.72123253025325z" fill="rgba(198, 217, 237, 0.4)" class="triangle-float2"></path></g><defs><mask id="SvgjsMask1100"><rect width="1920" height="1000" fill="#ffffff"></rect></mask><style>
                @keyframes float1 {
                    0%{transform: translate(0, 0)}
                    50%{transform: translate(-10px, 0)}
                    100%{transform: translate(0, 0)}
                }

                .triangle-float1 {
                    animation: float1 5s infinite;
                }

                @keyframes float2 {
                    0%{transform: translate(0, 0)}
                    50%{transform: translate(-5px, -5px)}
                    100%{transform: translate(0, 0)}
                }

                .triangle-float2 {
                    animation: float2 4s infinite;
                }

                @keyframes float3 {
                    0%{transform: translate(0, 0)}
                    50%{transform: translate(0, -10px)}
                    100%{transform: translate(0, 0)}
                }

                .triangle-float3 {
                    animation: float3 6s infinite;
                }
            </style></defs></svg>