<?xml version="1.0" standalone="no"?><svg xmlns="http://www.w3.org/2000/svg" viewBox="0 0 1440 320"><path fill="#0099ff" fill-opacity="1" d="M0,128L40,122.7C80,117,160,107,240,112C320,117,400,139,480,170.7C560,203,640,245,720,234.7C800,224,880,160,960,122.7C1040,85,1120,75,1200,64C1280,53,1360,43,1400,37.3L1440,32L1440,320L1400,320C1360,320,1280,320,1200,320C1120,320,1040,320,960,320C880,320,800,320,720,320C640,320,560,320,480,320C400,320,320,320,240,320C160,320,80,320,40,320L0,320Z"></path></svg>